# xmcd
#
# Track frame offsets:
#  150
#  15772
#  38520
#  64052
#  78410
#  96650
#  121529
#  143648
#  159745
#  178033
#  200734
#  220294
#  241748
#  259509
#  303483
#  329153
#
# Disc length: 4651 seconds
#
# Revision: 0
# Processed by: cddbd v1.5.2PL0 Copyright (c) Steve Scherf et al.
# Submitted via: AltoMP3_Maker 3.0
#
DISCID=d8122910
DTITLE=Tom Russell - The Western Years, disc 1
DYEAR=1900
DGENRE=
TTITLE0=Tonight We Ride
TTITLE1=East Texas Red
TTITLE2=El Paso
TTITLE3=Little Blue Horse
TTITLE4=Hills of Old Juarez
TTITLE5=Old Blue
TTITLE6=California Snow
TTITLE7=Sitting Bull in Venice
TTITLE8=Bucking Horse Moon
TTITLE9=Seven Curses
TTITLE10=Chickasaw County Jail
TTITLE11=Tramps and Hawkers
TTITLE12=Grapevine
TTITLE13=Lily, Rosemary and the Jack of Hearts
TTITLE14=Claude Dallas
TTITLE15=The Ballad of William Sycamore
EXTD=
EXTT0=
EXTT1=
EXTT2=
EXTT3=
EXTT4=
EXTT5=
EXTT6=
EXTT7=
EXTT8=
EXTT9=
EXTT10=
EXTT11=
EXTT12=
EXTT13=
EXTT14=
EXTT15=
PLAYORDER=
